<svg xmlns="http://www.w3.org/2000/svg" viewBox="0 0 100 100" aria-hidden="true">
  <rect width="100" height="100" fill="#fff"/>
  <rect x="8" y="8" width="28" height="28" fill="none" stroke="#1a1a1a" stroke-width="4"/>
  <rect x="64" y="8" width="28" height="28" fill="none" stroke="#1a1a1a" stroke-width="4"/>
  <rect x="8" y="64" width="28" height="28" fill="none" stroke="#1a1a1a" stroke-width="4"/>
  <rect x="16" y="16" width="12" height="12" fill="#1a1a1a"/>
  <rect x="72" y="16" width="12" height="12" fill="#1a1a1a"/>
  <rect x="16" y="72" width="12" height="12" fill="#1a1a1a"/>
  <g fill="#1a1a1a">
    <rect x="44" y="12" width="6" height="6"/><rect x="52" y="12" width="6" height="6"/>
    <rect x="44" y="20" width="6" height="6"/><rect x="60" y="20" width="6" height="6"/>
    <rect x="44" y="44" width="6" height="6"/><rect x="52" y="52" width="6" height="6"/>
    <rect x="60" y="44" width="6" height="6"/><rect x="44" y="60" width="6" height="6"/>
    <rect x="68" y="60" width="6" height="6"/><rect x="76" y="68" width="6" height="6"/>
    <rect x="60" y="76" width="6" height="6"/><rect x="84" y="44" width="6" height="6"/>
    <rect x="84" y="52" width="6" height="6"/><rect x="76" y="84" width="6" height="6"/>
  </g>
</svg>
