<svg xmlns="http://www.w3.org/2000/svg" xmlns:xlink="http://www.w3.org/1999/xlink" version="1.1" x="0px" y="0px" viewBox="0 0 500 500" style="enable-background:new 0 0 500 500;" xml:space="preserve">

<g id="Objects">
	<g>
		<g>
			<g>
				<g>
					<g>
						<path style="fill:#29354A;" d="M442.316,256.998l-8.473-2.181c-0.717-2.871-1.85-5.577-3.334-8.049l4.449-7.534        c0.713-1.207,0.518-2.742-0.473-3.733l-2.904-2.904c-0.99-0.991-2.527-1.186-3.734-0.473l-7.533,4.449        c-2.473-1.485-5.178-2.618-8.049-3.335l-2.182-8.473c-0.35-1.357-1.572-2.306-2.975-2.306h-4.107        c-1.4,0-2.625,0.948-2.973,2.306l-2.182,8.473c-2.871,0.717-5.578,1.85-8.049,3.335l-7.535-4.449        c-1.205-0.713-2.742-0.518-3.732,0.473l-2.904,2.904c-0.99,0.991-1.186,2.526-0.473,3.733l4.449,7.534        c-1.484,2.472-2.619,5.178-3.336,8.049l-8.473,2.181c-1.355,0.35-2.305,1.573-2.305,2.975v4.107        c0,1.401,0.949,2.625,2.305,2.975l8.473,2.181c0.717,2.871,1.852,5.577,3.336,8.049l-4.449,7.534        c-0.713,1.207-0.52,2.742,0.473,3.733l2.904,2.904c0.99,0.991,2.527,1.186,3.732,0.474l7.535-4.45        c2.471,1.485,5.178,2.618,8.049,3.335l2.182,8.473c0.348,1.357,1.572,2.306,2.973,2.306h4.107        c1.402,0,2.625-0.948,2.975-2.306l2.182-8.473c2.871-0.717,5.576-1.85,8.049-3.335l7.533,4.45        c1.207,0.712,2.744,0.518,3.734-0.474l2.904-2.904c0.99-0.991,1.186-2.526,0.473-3.733l-4.449-7.534        c1.484-2.472,2.617-5.178,3.334-8.049l8.473-2.181c1.357-0.35,2.307-1.573,2.307-2.975v-4.107        C444.623,258.571,443.674,257.348,442.316,256.998z M405.057,281.877c-10.963,0-19.852-8.888-19.852-19.851        s8.889-19.851,19.852-19.851c10.963,0,19.85,8.888,19.85,19.851S416.02,281.877,405.057,281.877z"/>
					</g>
				</g>
				<g>
					<path style="fill:#FC2863;" d="M456.744,323.758l-5.527-1.423c-0.467-1.874-1.207-3.639-2.176-5.252l2.902-4.916       c0.465-0.787,0.338-1.789-0.309-2.436l-1.895-1.896c-0.646-0.646-1.648-0.772-2.436-0.308l-4.916,2.902       c-1.613-0.969-3.377-1.708-5.252-2.176l-1.422-5.528c-0.228-0.885-1.027-1.504-1.941-1.504h-2.68       c-0.914,0-1.713,0.619-1.939,1.504l-1.424,5.528c-1.873,0.468-3.639,1.207-5.252,2.176l-4.914-2.902       c-0.787-0.465-1.791-0.339-2.437,0.308l-1.895,1.896c-0.647,0.646-0.773,1.648-0.309,2.436l2.904,4.916       c-0.969,1.612-1.709,3.378-2.176,5.252l-5.529,1.423c-0.885,0.227-1.504,1.026-1.504,1.939v2.681       c0,0.914,0.619,1.713,1.504,1.94l5.529,1.423c0.467,1.873,1.207,3.639,2.176,5.252l-2.904,4.915       c-0.465,0.787-0.338,1.789,0.309,2.436l1.895,1.895c0.646,0.646,1.65,0.772,2.437,0.308l4.914-2.902       c1.613,0.969,3.379,1.709,5.252,2.176l1.424,5.528c0.227,0.885,1.025,1.504,1.939,1.504h2.68c0.914,0,1.713-0.619,1.941-1.504       l1.422-5.528c1.875-0.467,3.639-1.207,5.252-2.176l4.916,2.902c0.787,0.465,1.789,0.339,2.436-0.308l1.895-1.895       c0.646-0.647,0.773-1.648,0.309-2.436l-2.902-4.916c0.969-1.612,1.709-3.378,2.176-5.251l5.527-1.423       c0.887-0.228,1.504-1.026,1.504-1.94v-2.681C458.248,324.784,457.631,323.984,456.744,323.758z M432.435,339.989       c-7.154,0-12.953-5.799-12.953-12.951c0-7.153,5.799-12.952,12.953-12.952c7.15,0,12.951,5.799,12.951,12.952       C445.387,334.19,439.586,339.989,432.435,339.989z"/>
				</g>
			</g>
		</g>
		<g>
			<g>
				<g>
					<g>
						<path style="fill:#29354A;" d="M179.197,147.361v2.883c0,0.983,0.666,1.842,1.618,2.087l5.945,1.53        c0.503,2.015,1.298,3.913,2.34,5.648l-3.122,5.287c-0.5,0.847-0.363,1.925,0.332,2.62l2.038,2.038        c0.695,0.695,1.772,0.831,2.619,0.331l5.287-3.122c1.734,1.042,3.633,1.838,5.647,2.341l1.531,5.945        c0.245,0.952,1.104,1.617,2.087,1.617h2.882c0.983,0,1.842-0.665,2.087-1.617l1.531-5.945        c2.015-0.503,3.913-1.299,5.648-2.341l5.287,3.122c0.847,0.5,1.924,0.364,2.619-0.331l2.038-2.038        c0.695-0.695,0.832-1.773,0.332-2.62l-3.122-5.287c1.042-1.734,1.837-3.633,2.34-5.648l5.945-1.53        c0.952-0.245,1.618-1.104,1.618-2.087v-2.883c0-0.983-0.666-1.842-1.618-2.087l-5.945-1.53        c-0.503-2.015-1.298-3.914-2.34-5.647l3.122-5.287c0.5-0.847,0.363-1.925-0.332-2.62l-2.038-2.038        c-0.695-0.695-1.772-0.832-2.619-0.332l-5.287,3.122c-1.734-1.042-3.633-1.837-5.648-2.34l-1.531-5.945        c-0.245-0.952-1.104-1.618-2.087-1.618h-2.882c-0.983,0-1.842,0.666-2.087,1.618l-1.531,5.945        c-2.015,0.503-3.913,1.298-5.647,2.34l-5.287-3.122c-0.847-0.5-1.924-0.363-2.619,0.332l-2.038,2.038        c-0.695,0.695-0.832,1.773-0.332,2.62l3.122,5.287c-1.042,1.734-1.837,3.633-2.34,5.647l-5.945,1.53        C179.863,145.52,179.197,146.378,179.197,147.361z M193.032,148.803c0-7.693,6.236-13.93,13.929-13.93        c7.693,0,13.93,6.236,13.93,13.93c0,7.692-6.236,13.929-13.93,13.929C199.269,162.731,193.032,156.495,193.032,148.803z"/>
					</g>
				</g>
				<g>
					<path style="fill:#FC2863;" d="M143.067,175.435v2.264c0,0.773,0.522,1.446,1.27,1.64l4.669,1.202       c0.396,1.582,1.021,3.073,1.838,4.435l-2.451,4.152c-0.394,0.665-0.286,1.512,0.26,2.058l1.601,1.601       c0.547,0.546,1.393,0.653,2.058,0.261l4.152-2.452c1.362,0.818,2.854,1.443,4.436,1.838l1.202,4.669       c0.192,0.748,0.867,1.27,1.639,1.27h2.264c0.773,0,1.447-0.522,1.64-1.27l1.202-4.669c1.582-0.395,3.073-1.02,4.436-1.838       l4.151,2.452c0.665,0.393,1.512,0.285,2.058-0.261l1.601-1.601c0.547-0.546,0.653-1.393,0.261-2.058l-2.452-4.152       c0.818-1.361,1.443-2.852,1.838-4.435l4.67-1.202c0.747-0.193,1.27-0.867,1.27-1.64v-2.264c0-0.773-0.523-1.446-1.27-1.639       l-4.67-1.202c-0.395-1.582-1.02-3.073-1.838-4.436l2.452-4.152c0.393-0.665,0.285-1.512-0.261-2.058l-1.601-1.6       c-0.546-0.546-1.392-0.653-2.058-0.261l-4.151,2.452c-1.362-0.818-2.854-1.442-4.436-1.838l-1.202-4.669       c-0.192-0.748-0.867-1.27-1.64-1.27h-2.264c-0.771,0-1.446,0.522-1.639,1.27l-1.202,4.669c-1.582,0.395-3.073,1.02-4.436,1.838       l-4.152-2.452c-0.665-0.393-1.511-0.285-2.058,0.261l-1.601,1.6c-0.546,0.546-0.653,1.393-0.26,2.058l2.451,4.152       c-0.817,1.362-1.442,2.854-1.838,4.436l-4.669,1.202C143.59,173.988,143.067,174.662,143.067,175.435z M153.933,176.566       c0-6.042,4.898-10.939,10.939-10.939c6.042,0,10.94,4.897,10.94,10.939c0,6.042-4.898,10.939-10.94,10.939       C158.831,187.506,153.933,182.608,153.933,176.566z"/>
				</g>
			</g>
		</g>
		<g>
			<g>
				<g>
					<path style="fill:#6981F7;" d="M392.004,84.987c0,2.454,1.816,4.445,4.057,4.445h16.358c2.24,0,4.057-1.991,4.057-4.445v-7.102       c0-2.454-1.816-4.444-4.057-4.444H396.06c-2.24,0-4.057,1.99-4.057,4.444V84.987z"/>
					<path style="fill:#6981F7;" d="M365.49,84.987c0,2.454,1.814,4.445,4.057,4.445h16.357c2.242,0,4.057-1.991,4.057-4.445v-7.102       c0-2.454-1.814-4.444-4.057-4.444h-16.357c-2.242,0-4.057,1.99-4.057,4.444V84.987z"/>
					<path style="fill:#6981F7;" d="M338.975,84.987c0,2.454,1.818,4.445,4.059,4.445h16.357c2.24,0,4.059-1.991,4.059-4.445v-7.102       c0-2.454-1.818-4.444-4.059-4.444h-16.357c-2.24,0-4.059,1.99-4.059,4.444V84.987z"/>
					<path style="fill:#6981F7;" d="M312.463,84.987c0,2.454,1.818,4.445,4.057,4.445h16.359c2.24,0,4.057-1.991,4.057-4.445v-7.102       c0-2.454-1.816-4.444-4.057-4.444H316.52c-2.238,0-4.057,1.99-4.057,4.444V84.987z"/>
				</g>
				<g>
					<path style="fill:#6981F7;" d="M392.004,123.115c0,2.453,1.816,4.444,4.057,4.444h16.358c2.24,0,4.057-1.991,4.057-4.444       v-7.103c0-2.454-1.816-4.442-4.057-4.442H396.06c-2.24,0-4.057,1.988-4.057,4.442V123.115z"/>
					<path style="fill:#6981F7;" d="M365.49,123.115c0,2.453,1.814,4.444,4.057,4.444h16.357c2.242,0,4.057-1.991,4.057-4.444       v-7.103c0-2.454-1.814-4.442-4.057-4.442h-16.357c-2.242,0-4.057,1.988-4.057,4.442V123.115z"/>
					<path style="fill:#6981F7;" d="M338.975,123.115c0,2.453,1.818,4.444,4.059,4.444h16.357c2.24,0,4.059-1.991,4.059-4.444       v-7.103c0-2.454-1.818-4.442-4.059-4.442h-16.357c-2.24,0-4.059,1.988-4.059,4.442V123.115z"/>
					<path style="fill:#6981F7;" d="M312.463,123.115c0,2.453,1.818,4.444,4.057,4.444h16.359c2.24,0,4.057-1.991,4.057-4.444       v-7.103c0-2.454-1.816-4.442-4.057-4.442H316.52c-2.238,0-4.057,1.988-4.057,4.442V123.115z"/>
					<path style="fill:#6981F7;" d="M285.949,123.115c0,2.453,1.816,4.444,4.059,4.444h16.357c2.24,0,4.057-1.991,4.057-4.444       v-7.103c0-2.454-1.816-4.442-4.057-4.442h-16.357c-2.242,0-4.059,1.988-4.059,4.442V123.115z"/>
				</g>
				<g>
					<path style="fill:#6981F7;" d="M382.803,130.938h16.359c2.24,0,4.057,1.99,4.057,4.444v7.104c0,2.453-1.816,4.443-4.057,4.443       h-16.359c-2.242,0-4.057-1.99-4.057-4.443v-7.104C378.746,132.928,380.56,130.938,382.803,130.938z"/>
					<path style="fill:#6981F7;" d="M356.289,130.938h16.359c2.24,0,4.057,1.99,4.057,4.444v7.104c0,2.453-1.816,4.443-4.057,4.443       h-16.359c-2.24,0-4.057-1.99-4.057-4.443v-7.104C352.232,132.928,354.049,130.938,356.289,130.938z"/>
					<path style="fill:#6981F7;" d="M329.777,130.938h16.358c2.24,0,4.057,1.99,4.057,4.444v7.104c0,2.453-1.816,4.443-4.057,4.443       h-16.358c-2.242,0-4.057-1.99-4.057-4.443v-7.104C325.721,132.928,327.535,130.938,329.777,130.938z"/>
					<path style="fill:#6981F7;" d="M303.264,130.938h16.357c2.242,0,4.057,1.99,4.057,4.444v7.104c0,2.453-1.814,4.443-4.057,4.443       h-16.357c-2.24,0-4.057-1.99-4.057-4.443v-7.104C299.207,132.928,301.023,130.938,303.264,130.938z"/>
				</g>
				<g>
					<path style="fill:#6981F7;" d="M382.803,92.812h16.359c2.24,0,4.057,1.989,4.057,4.443v7.103c0,2.454-1.816,4.444-4.057,4.444       h-16.359c-2.242,0-4.057-1.99-4.057-4.444v-7.103C378.746,94.801,380.56,92.812,382.803,92.812z"/>
					<path style="fill:#6981F7;" d="M356.289,92.812h16.359c2.238,0,4.057,1.989,4.057,4.443v7.103c0,2.454-1.818,4.444-4.057,4.444       h-16.359c-2.24,0-4.057-1.99-4.057-4.444v-7.103C352.232,94.801,354.049,92.812,356.289,92.812z"/>
					<path style="fill:#6981F7;" d="M329.777,92.812h16.358c2.24,0,4.057,1.989,4.057,4.443v7.103c0,2.454-1.816,4.444-4.057,4.444       h-16.358c-2.242,0-4.057-1.99-4.057-4.444v-7.103C325.721,94.801,327.535,92.812,329.777,92.812z"/>
					<path style="fill:#6981F7;" d="M303.264,92.812h16.359c2.238,0,4.055,1.989,4.055,4.443v7.103c0,2.454-1.816,4.444-4.055,4.444       h-16.359c-2.24,0-4.057-1.99-4.057-4.444v-7.103C299.207,94.801,301.023,92.812,303.264,92.812z"/>
				</g>
			</g>
			<g>
				<g>
					<path style="fill:#6981F7;" d="M66.224,371.634c0,2.454-1.816,4.445-4.057,4.445H45.809c-2.239,0-4.057-1.991-4.057-4.445       v-7.102c0-2.453,1.817-4.443,4.057-4.443h16.358c2.24,0,4.057,1.99,4.057,4.443V371.634z"/>
					<path style="fill:#6981F7;" d="M92.737,371.634c0,2.454-1.816,4.445-4.057,4.445H72.322c-2.241,0-4.057-1.991-4.057-4.445       v-7.102c0-2.453,1.815-4.443,4.057-4.443h16.358c2.24,0,4.057,1.99,4.057,4.443V371.634z"/>
					<path style="fill:#6981F7;" d="M119.252,371.634c0,2.454-1.817,4.445-4.058,4.445H98.836c-2.24,0-4.058-1.991-4.058-4.445       v-7.102c0-2.453,1.817-4.443,4.058-4.443h16.358c2.24,0,4.058,1.99,4.058,4.443V371.634z"/>
					<path style="fill:#6981F7;" d="M145.765,371.634c0,2.454-1.818,4.445-4.057,4.445h-16.359c-2.24,0-4.057-1.991-4.057-4.445       v-7.102c0-2.453,1.816-4.443,4.057-4.443h16.359c2.238,0,4.057,1.99,4.057,4.443V371.634z"/>
				</g>
				<g>
					<path style="fill:#6981F7;" d="M66.224,409.761c0,2.454-1.816,4.445-4.057,4.445H45.809c-2.239,0-4.057-1.991-4.057-4.445       v-7.103c0-2.455,1.817-4.443,4.057-4.443h16.358c2.24,0,4.057,1.988,4.057,4.443V409.761z"/>
					<path style="fill:#6981F7;" d="M92.737,409.761c0,2.454-1.816,4.445-4.057,4.445H72.322c-2.241,0-4.057-1.991-4.057-4.445       v-7.103c0-2.455,1.815-4.443,4.057-4.443h16.358c2.24,0,4.057,1.988,4.057,4.443V409.761z"/>
					<path style="fill:#6981F7;" d="M119.252,409.761c0,2.454-1.817,4.445-4.058,4.445H98.836c-2.24,0-4.058-1.991-4.058-4.445       v-7.103c0-2.455,1.817-4.443,4.058-4.443h16.358c2.24,0,4.058,1.988,4.058,4.443V409.761z"/>
					<path style="fill:#6981F7;" d="M145.765,409.761c0,2.454-1.818,4.445-4.057,4.445h-16.359c-2.24,0-4.057-1.991-4.057-4.445       v-7.103c0-2.455,1.816-4.443,4.057-4.443h16.359c2.238,0,4.057,1.988,4.057,4.443V409.761z"/>
					<path style="fill:#6981F7;" d="M172.277,409.761c0,2.454-1.816,4.445-4.058,4.445h-16.357c-2.241,0-4.058-1.991-4.058-4.445       v-7.103c0-2.455,1.816-4.443,4.058-4.443h16.357c2.241,0,4.058,1.988,4.058,4.443V409.761z"/>
				</g>
				<g>
					<path style="fill:#6981F7;" d="M75.425,417.584H59.065c-2.24,0-4.057,1.99-4.057,4.443v7.104c0,2.453,1.816,4.443,4.057,4.443       h16.359c2.241,0,4.057-1.99,4.057-4.443v-7.104C79.481,419.574,77.666,417.584,75.425,417.584z"/>
					<path style="fill:#6981F7;" d="M101.938,417.584H85.579c-2.24,0-4.057,1.99-4.057,4.443v7.104c0,2.453,1.816,4.443,4.057,4.443       h16.358c2.241,0,4.057-1.99,4.057-4.443v-7.104C105.994,419.574,104.179,417.584,101.938,417.584z"/>
					<path style="fill:#6981F7;" d="M128.45,417.584h-16.357c-2.241,0-4.057,1.99-4.057,4.443v7.104       c0,2.453,1.816,4.443,4.057,4.443h16.357c2.241,0,4.057-1.99,4.057-4.443v-7.104       C132.507,419.574,130.691,417.584,128.45,417.584z"/>
					<path style="fill:#6981F7;" d="M154.964,417.584h-16.358c-2.241,0-4.057,1.99-4.057,4.443v7.104       c0,2.453,1.816,4.443,4.057,4.443h16.358c2.24,0,4.057-1.99,4.057-4.443v-7.104       C159.02,419.574,157.204,417.584,154.964,417.584z"/>
				</g>
				<g>
					<path style="fill:#6981F7;" d="M75.425,379.458H59.065c-2.24,0-4.057,1.988-4.057,4.443v7.103c0,2.453,1.816,4.443,4.057,4.443       h16.359c2.241,0,4.057-1.99,4.057-4.443v-7.103C79.481,381.446,77.666,379.458,75.425,379.458z"/>
					<path style="fill:#6981F7;" d="M101.938,379.458H85.579c-2.239,0-4.057,1.988-4.057,4.443v7.103       c0,2.453,1.817,4.443,4.057,4.443h16.358c2.241,0,4.057-1.99,4.057-4.443v-7.103       C105.994,381.446,104.179,379.458,101.938,379.458z"/>
					<path style="fill:#6981F7;" d="M128.45,379.458h-16.357c-2.241,0-4.057,1.988-4.057,4.443v7.103       c0,2.453,1.816,4.443,4.057,4.443h16.357c2.241,0,4.057-1.99,4.057-4.443v-7.103       C132.507,381.446,130.691,379.458,128.45,379.458z"/>
					<path style="fill:#6981F7;" d="M154.964,379.458h-16.359c-2.238,0-4.056,1.988-4.056,4.443v7.103       c0,2.453,1.817,4.443,4.056,4.443h16.359c2.239,0,4.057-1.99,4.057-4.443v-7.103       C159.02,381.446,157.203,379.458,154.964,379.458z"/>
				</g>
			</g>
		</g>
		<g>
			<g>
				<path style="fill:#A9CCFF;" d="M120.875,196.856c1.193-4.956-1.375-9.653-6.05-10.743c-2.41-0.563-4.935-0.055-7.098,1.215      c0.095-0.899,0.159-1.808,0.159-2.74c0-11.218-7.016-20.313-15.673-20.313c-6.842,0-12.644,5.69-14.783,13.61      c-2.772-2.822-6.318-4.327-9.748-3.756c-6.039,1.007-9.444,8.068-7.664,15.814c-1.166-0.588-2.464-0.925-3.84-0.925      c-4.412,0-8.077,3.38-8.851,7.837H120.875z"/>
				<path style="fill:#A9CCFF;" d="M434.572,412.126c1.088-4.52-1.254-8.802-5.516-9.796c-2.197-0.513-4.498-0.05-6.471,1.107      c0.086-0.819,0.145-1.648,0.145-2.498c0-10.228-6.396-18.52-14.289-18.52c-6.238,0-11.527,5.188-13.478,12.409      c-2.529-2.573-5.762-3.945-8.889-3.425c-5.506,0.918-8.611,7.356-6.988,14.419c-1.063-0.536-2.246-0.844-3.5-0.844      c-4.023,0-7.365,3.082-8.07,7.147H434.572z"/>
				<path style="fill:#A9CCFF;" d="M208.468,116.852c1.376-5.712-1.584-11.127-6.973-12.383c-2.778-0.649-5.688-0.064-8.181,1.4      c0.108-1.037,0.184-2.084,0.184-3.158c0-12.931-8.087-23.413-18.065-23.413c-7.887,0-14.573,6.559-17.04,15.688      c-3.195-3.253-7.282-4.987-11.235-4.329c-6.961,1.16-10.887,9.3-8.835,18.227c-1.344-0.677-2.839-1.065-4.425-1.065      c-5.086,0-9.311,3.896-10.202,9.033H208.468z"/>
				<path style="fill:#A9CCFF;" d="M370.82,189.571c-1.008-4.187,1.16-8.154,5.109-9.075c2.035-0.475,4.168-0.046,5.996,1.026      c-0.08-0.76-0.135-1.527-0.135-2.315c0-9.476,5.926-17.158,13.238-17.158c5.779,0,10.68,4.807,12.486,11.496      c2.342-2.383,5.338-3.654,8.234-3.172c5.102,0.85,7.978,6.815,6.475,13.357c0.984-0.496,2.08-0.781,3.242-0.781      c3.728,0,6.824,2.855,7.477,6.621H370.82z"/>
			</g>
			<g>
				<path style="fill:#A9CCFF;" d="M273.594,116.99c0,3.696-2.996,6.693-6.691,6.693c-3.699,0-6.693-2.997-6.693-6.693      c0-3.696,2.994-6.692,6.693-6.692C270.598,110.298,273.594,113.294,273.594,116.99z"/>
				<path style="fill:#A9CCFF;" d="M79.526,141.565c0,3.696-2.997,6.693-6.692,6.693c-3.698,0-6.693-2.997-6.693-6.693      s2.995-6.692,6.693-6.692C76.529,134.873,79.526,137.869,79.526,141.565z"/>
				<path style="fill:#A9CCFF;" d="M199.846,64.12c0,2.907-2.356,5.263-5.263,5.263c-2.908,0-5.264-2.355-5.264-5.263      c0-2.907,2.355-5.264,5.264-5.264C197.489,58.856,199.846,61.213,199.846,64.12z"/>
				<path style="fill:#A9CCFF;" d="M148.145,289.757c0,2.355-1.911,4.267-4.267,4.267c-2.357,0-4.266-1.911-4.266-4.267      c0-2.356,1.908-4.267,4.266-4.267C146.234,285.49,148.145,287.4,148.145,289.757z"/>
				<path style="fill:#A9CCFF;" d="M74.585,337.744c0,4.793-3.887,8.683-8.68,8.683c-4.798,0-8.681-3.89-8.681-8.683      c0-4.796,3.883-8.681,8.681-8.681C70.698,329.064,74.585,332.948,74.585,337.744z"/>
				<path style="fill:#A9CCFF;" d="M251.6,294.639c0,3.416-2.77,6.188-6.186,6.188c-3.419,0-6.187-2.772-6.187-6.188      c0-3.418,2.768-6.187,6.187-6.187C248.83,288.452,251.6,291.221,251.6,294.639z"/>
				<path style="fill:#A9CCFF;" d="M158.899,207.95c0,3.934-3.189,7.123-7.122,7.123c-3.937,0-7.123-3.189-7.123-7.123      c0-3.935,3.186-7.122,7.123-7.122C155.71,200.828,158.899,204.016,158.899,207.95z"/>
				<path style="fill:#A9CCFF;" d="M415.152,360.521c0,2.355-1.91,4.267-4.267,4.267c-2.358,0-4.266-1.911-4.266-4.267      c0-2.356,1.908-4.267,4.266-4.267C413.242,356.254,415.152,358.164,415.152,360.521z"/>
				<path style="fill:#A9CCFF;" d="M401.713,206.254c0,3.803-3.084,6.888-6.887,6.888c-3.807,0-6.887-3.085-6.887-6.888      c0-3.804,3.08-6.887,6.887-6.887C398.629,199.367,401.713,202.45,401.713,206.254z"/>
			</g>
		</g>
		<g>
			
				<polyline style="fill:none;stroke:#FFFFFF;stroke-width:3;stroke-linecap:round;stroke-linejoin:round;stroke-miterlimit:10;" points="     323.705,296.482 270.914,296.482 270.914,245.806 230.231,245.806    "/>
			<path style="fill:#FFFFFF;" d="M333.244,296.482c0,2.85-2.31,5.159-5.16,5.159c-2.85,0-5.158-2.31-5.158-5.159     c0-2.85,2.309-5.159,5.158-5.159C330.934,291.323,333.244,293.633,333.244,296.482z"/>
		</g>
		<g>
			
				<polyline style="fill:none;stroke:#FFFFFF;stroke-width:3;stroke-linecap:round;stroke-linejoin:round;stroke-miterlimit:10;" points="     179.161,239.712 126.618,239.712 126.618,187.04    "/>
			<path style="fill:#FFFFFF;" d="M126.618,177.882c2.849,0,5.158,2.31,5.158,5.158c0,2.85-2.31,5.159-5.158,5.159     c-2.85,0-5.159-2.31-5.159-5.159C121.459,180.191,123.769,177.882,126.618,177.882z"/>
		</g>
		<path style="fill:#0F65B2;" d="M351.242,457.34h-205.84c-9.438,0-17.09-7.651-17.09-17.09l0,0h240.02l0,0    C368.332,449.689,360.68,457.34,351.242,457.34z"/>
		<g>
			
				<polyline style="fill:none;stroke:#FFFFFF;stroke-width:3;stroke-linecap:round;stroke-linejoin:round;stroke-miterlimit:10;" points="     194.583,268.939 117.533,268.939 117.533,320.544    "/>
			<path style="fill:#FFFFFF;" d="M117.533,330.195c2.85,0,5.159-2.311,5.159-5.159c0-2.85-2.31-5.159-5.159-5.159     s-5.159,2.309-5.159,5.159C112.374,327.885,114.684,330.195,117.533,330.195z"/>
		</g>
		<g>
			
				<polyline style="fill:none;stroke:#FFFFFF;stroke-width:3;stroke-linecap:round;stroke-linejoin:round;stroke-miterlimit:10;" points="     239.885,120.057 239.885,168.855 213.012,168.855 213.012,209.164    "/>
			<path style="fill:#FFFFFF;" d="M239.885,111.719c-2.85,0-5.159,2.309-5.159,5.159s2.31,5.159,5.159,5.159     c2.85,0,5.159-2.31,5.159-5.159S242.734,111.719,239.885,111.719z"/>
		</g>
		<g>
			<g>
				<path style="fill:#D7EFF5;" d="M335.099,440.575H168.537c-10.501,0-19.014-8.513-19.014-19.014v-93.319      c0-10.501,8.513-19.014,19.014-19.014h166.562c10.5,0,19.014,8.513,19.014,19.014v93.319      C354.112,432.063,345.599,440.575,335.099,440.575z"/>
				<path style="fill:#FFFFFF;" d="M333.286,438.558H170.351c-10.273,0-18.601-8.251-18.601-18.43v-90.452      c0-10.179,8.327-18.43,18.601-18.43h162.936c10.271,0,18.6,8.251,18.6,18.43v90.452      C351.886,430.307,343.558,438.558,333.286,438.558z"/>
				<path style="fill:#6981F7;" d="M335.852,433.251H167.783c-5.096,0-9.227-4.131-9.227-9.227v-97.032      c0-5.096,4.131-9.227,9.227-9.227h168.069c5.096,0,9.227,4.131,9.227,9.227v97.032      C345.079,429.12,340.948,433.251,335.852,433.251z"/>
				<g>
					<path style="fill:#6981F7;" d="M241.85,316.486L241.85,316.486c-0.518,0-0.938-0.42-0.938-0.938v-3.344       c0-0.518,0.42-0.938,0.938-0.938l0,0c0.518,0,0.938,0.42,0.938,0.938v3.344C242.787,316.066,242.367,316.486,241.85,316.486z"/>
					<path style="fill:#6981F7;" d="M244.383,316.486L244.383,316.486c-0.518,0-0.938-0.42-0.938-0.938v-3.344       c0-0.518,0.42-0.938,0.938-0.938l0,0c0.518,0,0.938,0.42,0.938,0.938v3.344C245.32,316.066,244.9,316.486,244.383,316.486z"/>
					<path style="fill:#6981F7;" d="M246.916,316.486L246.916,316.486c-0.518,0-0.938-0.42-0.938-0.938v-3.344       c0-0.518,0.42-0.938,0.938-0.938l0,0c0.518,0,0.938,0.42,0.938,0.938v3.344C247.854,316.066,247.434,316.486,246.916,316.486z"/>
					<path style="fill:#6981F7;" d="M249.449,316.486L249.449,316.486c-0.518,0-0.938-0.42-0.938-0.938v-3.344       c0-0.518,0.42-0.938,0.938-0.938l0,0c0.518,0,0.938,0.42,0.938,0.938v3.344C250.387,316.066,249.967,316.486,249.449,316.486z"/>
					<path style="fill:#6981F7;" d="M251.981,316.486L251.981,316.486c-0.518,0-0.936-0.42-0.936-0.938v-3.344       c0-0.518,0.418-0.938,0.936-0.938l0,0c0.518,0,0.938,0.42,0.938,0.938v3.344C252.919,316.066,252.499,316.486,251.981,316.486z       "/>
					<path style="fill:#6981F7;" d="M254.517,316.486L254.517,316.486c-0.519,0-0.938-0.42-0.938-0.938v-3.344       c0-0.518,0.418-0.938,0.938-0.938l0,0c0.518,0,0.936,0.42,0.936,0.938v3.344C255.452,316.066,255.034,316.486,254.517,316.486z       "/>
				</g>
				<path style="fill:#A9CCFF;" d="M293.835,421.339h-85.306c-4.724,0-8.554-3.83-8.554-8.554l0,0      c0-5.654,4.584-10.237,10.237-10.237h83.622c4.725,0,8.553,3.829,8.553,8.554v1.684      C302.388,417.509,298.56,421.339,293.835,421.339z"/>
				<g>
					<g>
						<g>
							<path style="fill:#0148A2;" d="M226.634,410.822h-1.758c-0.252,0-0.378-0.306-0.2-0.483l1.243-1.243         c0.11-0.11,0.11-0.289,0-0.399l-1.186-1.186c-0.11-0.11-0.29-0.11-0.4,0l-1.242,1.243c-0.179,0.178-0.483,0.052-0.483-0.2         v-1.758c0-0.156-0.127-0.282-0.283-0.282h-1.677c-0.156,0-0.283,0.126-0.283,0.282v1.758c0,0.252-0.305,0.378-0.483,0.2         l-1.242-1.243c-0.11-0.11-0.29-0.11-0.4,0l-1.186,1.186c-0.11,0.11-0.11,0.289,0,0.399l1.243,1.243         c0.178,0.178,0.052,0.483-0.2,0.483h-1.758c-0.156,0-0.283,0.126-0.283,0.282v1.677c0,0.157,0.127,0.283,0.283,0.283h1.758         c0.252,0,0.378,0.305,0.199,0.483l-1.242,1.242c-0.11,0.11-0.11,0.29,0,0.4l1.186,1.186c0.11,0.11,0.29,0.11,0.4,0         l1.242-1.242c0.179-0.179,0.483-0.052,0.483,0.2v1.757c0,0.156,0.127,0.283,0.283,0.283h1.677         c0.156,0,0.283-0.127,0.283-0.283v-1.757c0-0.252,0.305-0.379,0.483-0.2l1.242,1.242c0.11,0.11,0.29,0.11,0.4,0l1.186-1.186         c0.11-0.11,0.11-0.29,0-0.4l-1.243-1.242c-0.178-0.179-0.052-0.483,0.2-0.483h1.758c0.156,0,0.283-0.126,0.283-0.283v-1.677         C226.917,410.948,226.79,410.822,226.634,410.822z"/>
						</g>
					</g>
					<g>
						<g>
							<path style="fill:#0148A2;" d="M246.432,410.822h-1.758c-0.252,0-0.378-0.306-0.2-0.483l1.243-1.243         c0.11-0.11,0.11-0.289,0-0.399l-1.186-1.186c-0.11-0.11-0.29-0.11-0.4,0l-1.243,1.243c-0.178,0.178-0.482,0.052-0.482-0.2         v-1.758c0-0.156-0.127-0.282-0.283-0.282h-1.677c-0.156,0-0.283,0.126-0.283,0.282v1.758c0,0.252-0.305,0.378-0.483,0.2         l-1.242-1.243c-0.11-0.11-0.29-0.11-0.4,0l-1.185,1.186c-0.11,0.11-0.11,0.289,0,0.399l1.242,1.243         c0.179,0.178,0.053,0.483-0.199,0.483h-1.758c-0.156,0-0.283,0.126-0.283,0.282v1.677c0,0.157,0.127,0.283,0.283,0.283h1.758         c0.252,0,0.378,0.305,0.199,0.483l-1.242,1.242c-0.11,0.11-0.11,0.29,0,0.4l1.185,1.186c0.11,0.11,0.29,0.11,0.4,0         l1.242-1.242c0.179-0.179,0.483-0.052,0.483,0.2v1.757c0,0.156,0.127,0.283,0.283,0.283h1.677         c0.156,0,0.283-0.127,0.283-0.283v-1.757c0-0.252,0.305-0.379,0.482-0.2l1.243,1.242c0.11,0.11,0.29,0.11,0.4,0l1.186-1.186         c0.11-0.11,0.11-0.29,0-0.4l-1.243-1.242c-0.178-0.179-0.052-0.483,0.2-0.483h1.758c0.156,0,0.283-0.126,0.283-0.283v-1.677         C246.715,410.948,246.588,410.822,246.432,410.822z"/>
						</g>
					</g>
					<g>
						<g>
							<path style="fill:#0148A2;" d="M266.229,410.822h-1.758c-0.252,0-0.379-0.306-0.201-0.483l1.244-1.243         c0.109-0.11,0.109-0.289,0-0.399l-1.188-1.186c-0.109-0.11-0.289-0.11-0.398,0l-1.244,1.243         c-0.178,0.178-0.483,0.052-0.483-0.2v-1.758c0-0.156-0.127-0.282-0.283-0.282h-1.676c-0.156,0-0.283,0.126-0.283,0.282v1.758         c0,0.252-0.305,0.378-0.484,0.2l-1.242-1.243c-0.109-0.11-0.289-0.11-0.4,0l-1.186,1.186c-0.109,0.11-0.109,0.289,0,0.399         l1.242,1.243c0.18,0.178,0.053,0.483-0.199,0.483h-1.758c-0.156,0-0.283,0.126-0.283,0.282v1.677         c0,0.157,0.127,0.283,0.283,0.283h1.758c0.252,0,0.379,0.305,0.199,0.483l-1.242,1.242c-0.109,0.11-0.109,0.29,0,0.4         l1.186,1.186c0.111,0.11,0.291,0.11,0.4,0l1.242-1.242c0.18-0.179,0.484-0.052,0.484,0.2v1.757         c0,0.156,0.127,0.283,0.283,0.283h1.676c0.156,0,0.283-0.127,0.283-0.283v-1.757c0-0.252,0.305-0.379,0.483-0.2l1.244,1.242         c0.109,0.11,0.289,0.11,0.398,0l1.188-1.186c0.109-0.11,0.109-0.29,0-0.4l-1.244-1.242c-0.178-0.179-0.051-0.483,0.201-0.483         h1.758c0.156,0,0.281-0.126,0.281-0.283v-1.677C266.511,410.948,266.386,410.822,266.229,410.822z"/>
						</g>
					</g>
					<g>
						<g>
							<path style="fill:#0148A2;" d="M286.026,410.822h-1.758c-0.252,0-0.379-0.306-0.199-0.483l1.242-1.243         c0.111-0.11,0.111-0.289,0-0.399l-1.185-1.186c-0.111-0.11-0.289-0.11-0.4,0l-1.242,1.243         c-0.178,0.178-0.484,0.052-0.484-0.2v-1.758c0-0.156-0.125-0.282-0.281-0.282h-1.678c-0.156,0-0.283,0.126-0.283,0.282v1.758         c0,0.252-0.305,0.378-0.482,0.2l-1.242-1.243c-0.111-0.11-0.291-0.11-0.4,0l-1.188,1.186c-0.109,0.11-0.109,0.289,0,0.399         l1.244,1.243c0.178,0.178,0.051,0.483-0.201,0.483h-1.756c-0.158,0-0.283,0.126-0.283,0.282v1.677         c0,0.157,0.125,0.283,0.283,0.283h1.756c0.252,0,0.379,0.305,0.201,0.483l-1.244,1.242c-0.109,0.11-0.109,0.29,0,0.4         l1.188,1.186c0.109,0.11,0.289,0.11,0.4,0l1.242-1.242c0.178-0.179,0.482-0.052,0.482,0.2v1.757         c0,0.156,0.127,0.283,0.283,0.283h1.678c0.156,0,0.281-0.127,0.281-0.283v-1.757c0-0.252,0.307-0.379,0.484-0.2l1.242,1.242         c0.111,0.11,0.289,0.11,0.4,0l1.185-1.186c0.111-0.11,0.111-0.29,0-0.4l-1.242-1.242c-0.18-0.179-0.053-0.483,0.199-0.483         h1.758c0.156,0,0.283-0.126,0.283-0.283v-1.677C286.31,410.948,286.183,410.822,286.026,410.822z"/>
						</g>
					</g>
				</g>
				<g>
					<path style="fill:#0148A2;" d="M273.487,396.831h-44.61c-6.48,0-11.732-5.252-11.732-11.731v-33.368       c0-6.479,5.253-11.731,11.732-11.731h44.61c6.48,0,11.732,5.252,11.732,11.731V385.1       C285.22,391.579,279.968,396.831,273.487,396.831z"/>
					<path style="fill:#FBD131;" d="M263.228,363.891c0-0.778,0-1.984,0-3.838c0-6.88-4.717-12.32-12.045-12.32       c-7.329,0-12.045,5.441-12.045,12.32c0,1.854,0,3.06,0,3.838c-1.741,0.001-3.153,1.412-3.153,3.154v18.9       c0,1.741,1.412,3.153,3.154,3.153h24.087c1.742,0,3.154-1.412,3.154-3.153v-18.9       C266.38,365.303,264.968,363.892,263.228,363.891z M252.868,378.09v4.085c0,0.931-0.756,1.686-1.686,1.686       c-0.932,0-1.686-0.755-1.686-1.686v-4.085c-1.716-0.729-2.864-2.535-2.593-4.57c0.256-1.927,1.842-3.479,3.773-3.697       c2.611-0.297,4.824,1.738,4.824,4.29C255.501,375.899,254.415,377.433,252.868,378.09z M259.05,363.891h-15.736       c0-0.819,0-2.104,0-3.838c0-3.215,1.619-8.216,7.869-8.216s7.867,5.001,7.867,8.216       C259.05,361.786,259.05,363.071,259.05,363.891z"/>
				</g>
			</g>
			<g>
				<path style="fill:#D7EFF5;" d="M273.669,446.72h-43.701c-3.394,0-6.145-2.603-6.145-5.814l0,0c0-3.211,2.751-5.815,6.145-5.815      h43.701c3.393,0,6.143,2.604,6.143,5.815l0,0C279.811,444.116,277.061,446.72,273.669,446.72z"/>
			</g>
			<g>
				<path style="fill:#D7EFF5;" d="M354.737,457.34H145.263c-9.438,0-17.09-7.651-17.09-17.09h3.636h240.018l0,0      C371.827,449.689,364.177,457.34,354.737,457.34z"/>
				<g>
					<g>
						<path style="fill:#FFFFFF;" d="M142.811,445.755L142.811,445.755c1.185,0,2.146,0.961,2.146,2.145v0.595        c0,1.185-0.961,2.146-2.146,2.146l0,0c-1.186,0-2.146-0.961-2.146-2.146V447.9        C140.665,446.716,141.625,445.755,142.811,445.755z"/>
						<path style="fill:#FFFFFF;" d="M154.8,445.755L154.8,445.755c1.185,0,2.146,0.961,2.146,2.145v0.595        c0,1.185-0.961,2.146-2.146,2.146l0,0c-1.185,0-2.145-0.961-2.145-2.146V447.9C152.654,446.716,153.614,445.755,154.8,445.755        z"/>
						<path style="fill:#FFFFFF;" d="M166.789,445.755L166.789,445.755c1.185,0,2.146,0.961,2.146,2.145v0.595        c0,1.185-0.961,2.146-2.146,2.146l0,0c-1.186,0-2.145-0.961-2.145-2.146V447.9        C164.644,446.716,165.604,445.755,166.789,445.755z"/>
						<path style="fill:#FFFFFF;" d="M178.778,445.755L178.778,445.755c1.185,0,2.146,0.961,2.146,2.145v0.595        c0,1.185-0.961,2.146-2.146,2.146l0,0c-1.184,0-2.145-0.961-2.145-2.146V447.9        C176.633,446.716,177.594,445.755,178.778,445.755z"/>
						<path style="fill:#FFFFFF;" d="M190.768,445.755L190.768,445.755c1.185,0,2.146,0.961,2.146,2.145v0.595        c0,1.185-0.961,2.146-2.146,2.146l0,0c-1.185,0-2.145-0.961-2.145-2.146V447.9        C188.622,446.716,189.583,445.755,190.768,445.755z"/>
						<path style="fill:#FFFFFF;" d="M202.757,445.755L202.757,445.755c1.185,0,2.146,0.961,2.146,2.145v0.595        c0,1.185-0.961,2.146-2.146,2.146l0,0c-1.184,0-2.145-0.961-2.145-2.146V447.9        C200.611,446.716,201.572,445.755,202.757,445.755z"/>
					</g>
					<g>
						<path style="fill:#FFFFFF;" d="M300.878,445.755L300.878,445.755c1.186,0,2.146,0.961,2.146,2.145v0.595        c0,1.185-0.961,2.146-2.146,2.146l0,0c-1.184,0-2.145-0.961-2.145-2.146V447.9        C298.733,446.716,299.694,445.755,300.878,445.755z"/>
						<path style="fill:#FFFFFF;" d="M312.868,445.755L312.868,445.755c1.185,0,2.145,0.961,2.145,2.145v0.595        c0,1.185-0.959,2.146-2.145,2.146l0,0c-1.186,0-2.147-0.961-2.147-2.146V447.9        C310.722,446.716,311.683,445.755,312.868,445.755z"/>
						<path style="fill:#FFFFFF;" d="M324.856,445.755L324.856,445.755c1.186,0,2.147,0.961,2.147,2.145v0.595        c0,1.185-0.961,2.146-2.147,2.146l0,0c-1.184,0-2.145-0.961-2.145-2.146V447.9        C322.712,446.716,323.673,445.755,324.856,445.755z"/>
						<path style="fill:#FFFFFF;" d="M336.847,445.755L336.847,445.755c1.186,0,2.145,0.961,2.145,2.145v0.595        c0,1.185-0.959,2.146-2.145,2.146l0,0c-1.186,0-2.145-0.961-2.145-2.146V447.9        C334.702,446.716,335.661,445.755,336.847,445.755z"/>
						<path style="fill:#FFFFFF;" d="M348.837,445.755L348.837,445.755c1.184,0,2.145,0.961,2.145,2.145v0.595        c0,1.185-0.961,2.146-2.145,2.146l0,0c-1.185,0-2.146-0.961-2.146-2.146V447.9        C346.69,446.716,347.651,445.755,348.837,445.755z"/>
						<path style="fill:#FFFFFF;" d="M360.825,445.755L360.825,445.755c1.185,0,2.146,0.961,2.146,2.145v0.595        c0,1.185-0.961,2.146-2.146,2.146l0,0c-1.186,0-2.145-0.961-2.145-2.146V447.9        C358.681,446.716,359.64,445.755,360.825,445.755z"/>
					</g>
				</g>
			</g>
		</g>
		<g>
			<g>
				<g>
					<g>
						<path style="fill:#0148A2;" d="M371.879,229.494H268.412c-3.906,0-7.074-3.167-7.074-7.074v-75.05        c0-3.907,3.168-7.074,7.074-7.074h103.467c3.906,0,7.074,3.167,7.074,7.074v75.05        C378.953,226.327,375.785,229.494,371.879,229.494z"/>
					</g>
					<rect x="261.338" y="159.792" style="fill:#EDF3F9;" width="117.615" height="61.421"/>
				</g>
				<g>
					<path style="fill:#FC2863;" d="M367.832,154.188h-2.664c-1.803,0-3.262-1.461-3.262-3.262v-0.735       c0-1.801,1.459-3.262,3.262-3.262h2.664c1.801,0,3.262,1.461,3.262,3.262v0.735       C371.094,152.727,369.633,154.188,367.832,154.188z"/>
					<path style="fill:#FBD131;" d="M356.92,154.188h-0.951c-1.801,0-3.262-1.461-3.262-3.262v-0.735       c0-1.801,1.461-3.262,3.262-3.262h0.951c1.801,0,3.262,1.461,3.262,3.262v0.735       C360.182,152.727,358.721,154.188,356.92,154.188z"/>
					<path style="fill:#6981F7;" d="M348.035,154.188h-0.318c-1.605,0-2.908-1.303-2.908-2.909v-1.44       c0-1.607,1.303-2.909,2.908-2.909h0.318c1.605,0,2.908,1.303,2.908,2.909v1.44       C350.943,152.885,349.641,154.188,348.035,154.188z"/>
				</g>
			</g>
			<g>
				<g>
					<g>
						<g>
							<rect x="266.902" y="175.811" style="fill:#29354A;" width="42.623" height="3.197"/>
							<rect x="266.902" y="182.931" style="fill:#FBD131;" width="16.969" height="3.201"/>
							<rect x="288.021" y="182.931" style="fill:#A9CCFF;" width="26.613" height="3.201"/>
							<rect x="266.902" y="190.058" style="fill:#A9CCFF;" width="47.732" height="3.196"/>
						</g>
						<g>
							<rect x="266.902" y="196.557" style="fill:#29354A;" width="42.623" height="3.197"/>
							<rect x="266.902" y="203.676" style="fill:#FBD131;" width="16.969" height="3.202"/>
							<rect x="288.021" y="203.676" style="fill:#A9CCFF;" width="26.613" height="3.202"/>
							<rect x="266.902" y="210.804" style="fill:#A9CCFF;" width="47.732" height="3.196"/>
						</g>
					</g>
					<rect x="320.096" y="175.811" style="fill:#6981F7;" width="53.293" height="38.824"/>
				</g>
				<rect x="266.902" y="163.194" style="fill:#A9CCFF;" width="106.486" height="7.993"/>
			</g>
		</g>
		<g>
			<g>
				<path style="fill:#D7EFF5;" d="M393.943,394.044h-48.648c-4.528,0-8.201-3.654-8.201-8.163V276.662      c0-4.509,3.673-8.162,8.201-8.162h48.648c4.53,0,8.201,3.653,8.201,8.162v109.219      C402.145,390.39,398.474,394.044,393.943,394.044z"/>
			</g>
			<g>
				<path style="fill:#FFFFFF;" d="M392.532,391.919h-45.826c-4.266,0-7.726-3.531-7.726-7.887V278.511      c0-4.355,3.46-7.886,7.726-7.886h45.826c4.268,0,7.726,3.53,7.726,7.886v105.521C400.258,388.388,396.8,391.919,392.532,391.919      z"/>
			</g>
			<rect x="342.842" y="284.493" style="fill:#6981F7;" width="53.408" height="90.477"/>
			<g>
				<path style="fill:#D7EFF5;" d="M380.904,277.732h-20c-0.693,0-1.256-0.563-1.256-1.256l0,0c0-0.694,0.563-1.257,1.256-1.257h20      c0.695,0,1.256,0.563,1.256,1.257l0,0C382.16,277.17,381.6,277.732,380.904,277.732z"/>
				<path style="fill:#D7EFF5;" d="M358.168,277.809L358.168,277.809c-0.522,0-0.943-0.423-0.943-0.944v-0.7      c0-0.521,0.422-0.944,0.943-0.944l0,0c0.521,0,0.943,0.423,0.943,0.944v0.7C359.111,277.386,358.689,277.809,358.168,277.809z"/>
			</g>
			<g>
				<path style="fill:#FBD131;" d="M388.38,323.477c-5.152-4.791-11.235-7.243-18.974-7.449v-0.001c-0.003,0-0.005,0-0.008,0.001      c-0.003-0.001-0.007-0.001-0.01-0.001v0.001c-7.736,0.206-13.82,2.658-18.974,7.449c-0.939,0.873-1.183,1.89-0.732,2.916      c0.443,1.008,1.411,1.618,2.548,1.383c0.601-0.125,1.21-0.509,1.676-0.93c3.494-3.166,7.528-5.171,12.221-5.753      c1.112-0.138,2.201-0.199,3.271-0.201c1.069,0.002,2.158,0.064,3.272,0.201c4.692,0.582,8.727,2.587,12.221,5.753      c0.466,0.421,1.074,0.805,1.674,0.93c1.139,0.235,2.106-0.375,2.548-1.383C389.564,325.366,389.319,324.35,388.38,323.477z"/>
				<path style="fill:#FBD131;" d="M369.406,324.169L369.406,324.169c-0.003-0.001-0.005-0.001-0.008-0.001c-0.003,0-0.007,0-0.01,0      v0.001c-5.055-0.025-10.122,1.844-13.756,5.605c-1.01,1.046-1.073,2.482-0.156,3.467c0.942,1.011,2.454,1.052,3.53,0.019      c2.942-2.823,6.386-4.289,10.392-4.253c4.006-0.036,7.449,1.43,10.392,4.253c1.075,1.033,2.587,0.992,3.53-0.019      c0.917-0.984,0.852-2.421-0.157-3.467C379.53,326.013,374.461,324.144,369.406,324.169z"/>
				<path style="fill:#FBD131;" d="M370.203,332.256c-0.273,0.002-0.541,0.013-0.805,0.026c-0.264-0.014-0.532-0.024-0.805-0.026      c-2.515,0.068-5.306,1.145-7.569,3.48c-1.109,1.146-1.157,2.558-0.124,3.583c1.008,1.002,2.457,0.938,3.584-0.159      c1.443-1.403,3.182-2.084,4.914-2.053c1.73-0.031,3.47,0.649,4.912,2.053c1.128,1.097,2.578,1.161,3.586,0.159      c1.031-1.025,0.984-2.438-0.126-3.583C375.509,333.4,372.716,332.324,370.203,332.256z"/>
				<path style="fill:#FBD131;" d="M369.5,340.692c-0.035,0-0.068,0.003-0.102,0.005c-0.033-0.002-0.068-0.005-0.101-0.005      c-1.644,0.005-2.906,1.247-2.924,2.876c-0.018,1.684,1.237,2.943,2.937,2.948c0.03,0,0.059-0.002,0.089-0.004      c0.028,0.002,0.059,0.004,0.087,0.004c1.701-0.005,2.955-1.265,2.938-2.948C372.406,341.94,371.144,340.697,369.5,340.692z"/>
			</g>
		</g>
		<g>
			<g>
				<path style="fill:#FBD131;" d="M297.008,278.877l-8.674-7.581c-0.402-0.351-0.443-0.96-0.092-1.361l25.389-29.101      c0.35-0.401,0.959-0.442,1.361-0.092l8.674,7.581c0.4,0.351,0.441,0.96,0.09,1.36l-25.389,29.102      C298.018,279.185,297.408,279.227,297.008,278.877z"/>
				<path style="fill:#F2B01E;" d="M323.666,248.323l-0.895-0.781l-0.355-0.31c-0.039,0.057-0.074,0.116-0.121,0.17l-24.582,28.179      c-0.699,0.801-1.914,0.882-2.715,0.183l-6.561-6.052l-0.194,0.223c-0.352,0.401-0.311,1.011,0.092,1.361l8.674,7.581      c0.4,0.35,1.01,0.308,1.359-0.092l25.389-29.102C324.107,249.283,324.066,248.674,323.666,248.323z"/>
			</g>
			
				<rect x="318.286" y="235.266" transform="matrix(0.7528 0.6582 -0.6582 0.7528 238.1222 -153.0188)" style="fill:#29354A;" width="9.042" height="10.573"/>
			<g>
				<path style="opacity:0.45;fill:#FFFFFF;" d="M320.904,219.288c-0.94-12.818,8.691-23.971,21.51-24.911      c12.818-0.939,23.971,8.69,24.91,21.509c0.94,12.818-8.689,23.972-21.508,24.911      C332.998,241.736,321.844,232.107,320.904,219.288z"/>
				<path style="fill:#29354A;" d="M371.18,215.604c-1.096-14.947-14.102-26.177-29.049-25.081      c-14.947,1.096-26.176,14.101-25.08,29.049c1.096,14.947,14.1,26.177,29.047,25.081      C361.047,243.557,372.275,230.551,371.18,215.604z M320.904,219.288c-0.94-12.818,8.691-23.971,21.51-24.911      c12.818-0.939,23.971,8.69,24.91,21.509c0.94,12.818-8.689,23.972-21.508,24.911      C332.998,241.736,321.844,232.107,320.904,219.288z"/>
			</g>
		</g>
		<g>
			<g>
				<path style="fill:#639FDB;" d="M256.432,218.152c-7.936-3.963-13.608-9.442-15.319-17.574c-9.561-3.679-46.641-3.679-56.201,0      c-1.711,8.132-7.383,13.611-15.32,17.574c-0.285,40.842,13.138,69.827,43.422,81.476      C245.859,288.559,256.719,258.994,256.432,218.152z"/>
				<path style="fill:#FC2863;" d="M256.432,218.152c-7.936-3.963-13.608-9.442-15.319-17.574c-9.561-3.679-46.641-3.679-56.201,0      c-1.711,8.132-7.383,13.611-15.32,17.574c-0.285,40.842,13.138,69.827,43.422,81.476      C245.859,288.559,256.719,258.994,256.432,218.152z"/>
				<path style="fill:none;stroke:#FFFFFF;stroke-width:3;stroke-linecap:round;stroke-linejoin:round;stroke-miterlimit:10;" d="      M247.838,224.204c-6.366-3.179-10.915-7.573-12.287-14.096c-7.669-2.95-37.409-2.95-45.077,0      c-1.372,6.523-5.922,10.917-12.288,14.096c-0.229,32.757,10.537,56.005,34.827,65.348      C239.357,280.674,248.067,256.961,247.838,224.204z"/>
			</g>
			<path style="fill:#FBD131;" d="M228.586,229.979l-23.87,22.557l-7.081-7.663c-1.337-1.447-3.598-1.523-5.029-0.169l0,0     c-1.403,1.329-1.48,3.539-0.173,4.962l9.487,10.324c1.335,1.452,3.6,1.532,5.033,0.177l26.495-25.043     c1.4-1.324,1.483-3.524,0.188-4.95l-0.004-0.003C232.3,228.704,230.024,228.618,228.586,229.979z"/>
		</g>
		<g>
			<g>
				
					<ellipse transform="matrix(0.7071 -0.7071 0.7071 0.7071 -61.4503 127.0952)" style="fill:#FBD131;" cx="122.692" cy="137.725" rx="29.131" ry="29.131"/>
			</g>
			<path style="fill:#0148A2;" d="M126.837,138.134c5.105,1.829,8.144,7.227,8.184,14.689c0.004,0.827-0.654,1.501-1.461,1.506     l-21.722,0.121c-0.808,0.005-1.469-0.661-1.473-1.489c-0.011-1.869,0.265-8.288,4.193-12.316c0.883-0.908,1.874-1.612,3.01-2.137     c-2.608-1.668-4.259-4.715-4.276-8.047c-0.028-5.193,3.834-9.436,8.61-9.462c4.774-0.027,8.685,4.172,8.712,9.365     C130.631,133.495,129.208,136.378,126.837,138.134"/>
		</g>
		<g>
			<g>
				
					<ellipse transform="matrix(0.9185 -0.3954 0.3954 0.9185 -135.2049 71.8016)" style="fill:#FBD131;" cx="106.579" cy="363.891" rx="29.131" ry="29.131"/>
			</g>
			<g>
				<path style="fill:#0148A2;" d="M120.68,361.32c0.045-8.416-6.242-15.296-14.017-15.34c-0.028,0-0.056,0.004-0.084,0.004      c-0.028,0-0.056-0.004-0.084-0.004c-7.774,0.044-14.061,6.924-14.017,15.34c0.001,0.203,0.021,0.397,0.021,0.401      c-0.016,0.497-0.252,12.274,12.549,20.249c0.382,0.236,1.056,0.43,1.531,0.455c0.476-0.025,1.149-0.219,1.531-0.455      c12.801-7.975,12.564-19.752,12.55-20.249C120.66,361.718,120.679,361.523,120.68,361.32z M106.579,379.157      c-11.095-6.977-10.953-17.753-10.954-17.854c-0.014-2.487,0.663-4.804,1.831-6.73c1.952-3.221,5.277-5.353,9.057-5.375      c0.022,0,0.044,0.004,0.066,0.004c0.023,0,0.044-0.004,0.066-0.004c3.779,0.022,7.104,2.154,9.057,5.375      c1.168,1.927,1.845,4.243,1.831,6.73C117.532,361.404,117.674,372.181,106.579,379.157z"/>
				<path style="fill:#0148A2;" d="M106.579,354.116c-2.364,0-4.28,1.917-4.28,4.28c0,2.364,1.916,4.281,4.28,4.281      c2.364,0,4.28-1.917,4.28-4.281C110.859,356.033,108.943,354.116,106.579,354.116z"/>
			</g>
		</g>
		<g>
			<g>
				<g>
					
						<ellipse transform="matrix(0.7071 -0.7071 0.7071 0.7071 19.4967 190.6512)" style="fill:#FBD131;" cx="239.885" cy="71.791" rx="29.131" ry="29.131"/>
				</g>
			</g>
			<g>
				<g>
					<path style="fill:#1160B7;" d="M238.71,79.195c0,2.508-0.001,5.016,0,7.522c0,0.098,0.003,0.196,0.015,0.294       c0.094,0.787,0.934,1.26,1.65,0.921c0.488-0.231,0.691-0.64,0.69-1.173c-0.003-5.065-0.001-10.128-0.005-15.192       c0-0.168,0.04-0.255,0.211-0.32c0.558-0.214,1.027-0.561,1.419-1.015c1.012-1.169,1.184-2.859,0.425-4.214       c-0.764-1.363-2.311-2.108-3.835-1.847c-1.619,0.277-2.888,1.598-3.067,3.193c-0.189,1.681,0.719,3.242,2.271,3.874       c0.186,0.075,0.23,0.165,0.229,0.35C238.708,74.124,238.71,76.66,238.71,79.195z M256.297,67.642       c-0.031-0.434-0.07-1.056-0.125-1.676c-0.027-0.299-0.074-0.598-0.131-0.893c-0.732-3.807-2.648-6.883-5.715-9.247       c-0.567-0.437-1.296-0.363-1.702,0.164c-0.417,0.539-0.293,1.254,0.263,1.708c0.492,0.403,0.995,0.803,1.432,1.263       c3.074,3.239,4.182,7.08,3.34,11.448c-0.602,3.117-2.258,5.613-4.772,7.545c-0.56,0.429-0.675,1.159-0.272,1.689       c0.401,0.528,1.145,0.62,1.7,0.183c0.461-0.364,0.921-0.734,1.341-1.143C254.713,75.715,256.227,72.083,256.297,67.642z        M223.472,67.77c0.027,0.5,0.04,0.948,0.079,1.394c0.245,2.846,1.227,5.412,2.939,7.698c0.845,1.128,1.841,2.108,2.96,2.963       c0.404,0.309,0.842,0.377,1.3,0.154c0.798-0.389,0.858-1.444,0.149-2.024c-0.557-0.456-1.118-0.917-1.608-1.441       c-2.377-2.537-3.511-5.563-3.442-9.034c0.04-1.971,0.527-3.831,1.447-5.576c0.879-1.668,2.08-3.063,3.581-4.201       c0.256-0.193,0.438-0.432,0.497-0.751c0.091-0.505-0.113-0.977-0.528-1.233c-0.438-0.271-0.96-0.234-1.408,0.116       C225.541,58.879,223.587,62.89,223.472,67.77z M228.888,68.022c0.057,0.46,0.092,1.113,0.225,1.747       c0.567,2.71,2.053,4.79,4.394,6.262c0.301,0.189,0.632,0.225,0.969,0.117c0.454-0.146,0.735-0.462,0.805-0.932       c0.077-0.53-0.133-0.935-0.591-1.224c-3.142-1.981-4.301-5.887-2.741-9.257c0.604-1.306,1.538-2.326,2.755-3.093       c0.487-0.307,0.692-0.816,0.556-1.334c-0.197-0.753-1.099-1.137-1.859-0.635C230.472,61.609,229.006,64.341,228.888,68.022z        M250.871,67.83c-0.006-1.095-0.179-2.154-0.539-3.18c-0.756-2.147-2.114-3.813-4.038-5.021       c-0.287-0.181-0.601-0.235-0.927-0.15c-0.479,0.124-0.776,0.438-0.87,0.921c-0.1,0.511,0.12,0.947,0.58,1.25       c2.313,1.521,3.472,3.665,3.422,6.435c-0.027,1.468-0.502,2.8-1.359,3.992c-0.558,0.777-1.251,1.412-2.061,1.922       c-0.491,0.309-0.703,0.813-0.564,1.33c0.212,0.793,1.099,1.128,1.814,0.664C249.287,74.075,250.761,71.33,250.871,67.83z"/>
					<path style="fill:#0148A2;" d="M238.71,79.195c0-2.535-0.002-5.071,0.003-7.606c0.001-0.185-0.043-0.274-0.229-0.35       c-1.553-0.632-2.461-2.193-2.271-3.874c0.18-1.596,1.448-2.916,3.067-3.193c1.524-0.262,3.071,0.483,3.835,1.847       c0.759,1.354,0.587,3.045-0.425,4.214c-0.392,0.454-0.861,0.801-1.419,1.015c-0.171,0.065-0.211,0.152-0.211,0.32       c0.004,5.064,0.002,10.128,0.005,15.192c0.001,0.533-0.202,0.941-0.69,1.173c-0.717,0.339-1.557-0.134-1.65-0.921       c-0.012-0.098-0.015-0.196-0.015-0.294C238.709,84.211,238.71,81.703,238.71,79.195z"/>
					<path style="fill:#0148A2;" d="M256.297,67.642c-0.07,4.441-1.584,8.073-4.643,11.042c-0.42,0.408-0.88,0.778-1.341,1.143       c-0.555,0.438-1.299,0.346-1.7-0.183c-0.402-0.53-0.287-1.261,0.272-1.689c2.515-1.932,4.171-4.428,4.772-7.545       c0.842-4.368-0.266-8.209-3.34-11.448c-0.437-0.46-0.939-0.859-1.432-1.263c-0.556-0.454-0.68-1.169-0.263-1.708       c0.406-0.527,1.135-0.601,1.702-0.164c3.066,2.364,4.982,5.44,5.715,9.247c0.057,0.295,0.104,0.594,0.131,0.893       C256.227,66.586,256.266,67.208,256.297,67.642z"/>
					<path style="fill:#0148A2;" d="M223.472,67.77c0.115-4.88,2.069-8.891,5.966-11.937c0.448-0.351,0.97-0.387,1.408-0.116       c0.415,0.257,0.619,0.729,0.528,1.233c-0.059,0.319-0.241,0.558-0.497,0.751c-1.501,1.138-2.702,2.533-3.581,4.201       c-0.92,1.745-1.407,3.605-1.447,5.576c-0.068,3.472,1.066,6.497,3.442,9.034c0.49,0.524,1.052,0.985,1.608,1.441       c0.709,0.58,0.648,1.636-0.149,2.024c-0.458,0.223-0.896,0.154-1.3-0.154c-1.119-0.854-2.115-1.835-2.96-2.963       c-1.712-2.286-2.694-4.853-2.939-7.698C223.512,68.718,223.499,68.27,223.472,67.77z"/>
					<path style="fill:#0148A2;" d="M228.888,68.022c0.118-3.682,1.584-6.413,4.511-8.348c0.761-0.502,1.662-0.118,1.859,0.635       c0.137,0.518-0.068,1.027-0.556,1.334c-1.217,0.767-2.151,1.787-2.755,3.093c-1.56,3.37-0.4,7.275,2.741,9.257       c0.458,0.288,0.668,0.693,0.591,1.224c-0.069,0.47-0.351,0.786-0.805,0.932c-0.337,0.108-0.668,0.072-0.969-0.117       c-2.341-1.472-3.826-3.552-4.394-6.262C228.979,69.136,228.944,68.482,228.888,68.022z"/>
					<path style="fill:#0148A2;" d="M250.871,67.83c-0.11,3.5-1.584,6.245-4.543,8.162c-0.716,0.464-1.602,0.129-1.814-0.664       c-0.139-0.518,0.073-1.021,0.564-1.33c0.811-0.51,1.503-1.145,2.061-1.922c0.858-1.192,1.332-2.524,1.359-3.992       c0.05-2.77-1.109-4.913-3.422-6.435c-0.46-0.303-0.68-0.739-0.58-1.25c0.094-0.482,0.392-0.797,0.87-0.921       c0.326-0.085,0.64-0.03,0.927,0.15c1.924,1.209,3.282,2.874,4.038,5.021C250.692,65.676,250.865,66.735,250.871,67.83z"/>
				</g>
			</g>
		</g>
		<g>
			<g>
				<path style="fill:#0148A2;" d="M101.831,291.004H47.433c-1.392,0-2.518-1.127-2.518-2.518v-78.906      c0-1.391,1.127-2.519,2.518-2.519h54.399c1.391,0,2.518,1.128,2.518,2.519v78.906      C104.35,289.877,103.222,291.004,101.831,291.004z"/>
				<path style="fill:#FC2863;" d="M95.473,249.032c0,11.511-9.331,20.842-20.841,20.842c-11.51,0-20.841-9.331-20.841-20.842      c0-11.51,9.331-20.841,20.841-20.841C86.142,228.191,95.473,237.523,95.473,249.032z"/>
				<circle style="fill:#0046A5;" cx="74.632" cy="249.032" r="8.491"/>
				<path style="fill:#6981F7;" d="M78.939,249.032c0,2.379-1.929,4.308-4.308,4.308s-4.308-1.929-4.308-4.308      c0-2.379,1.929-4.308,4.308-4.308S78.939,246.653,78.939,249.032z"/>
				<g>
					<g>
						<path style="fill:#6981F7;" d="M51.379,286.276c0,1.278-1.037,2.315-2.316,2.315c-1.278,0-2.315-1.037-2.315-2.315        c0-1.279,1.037-2.315,2.315-2.315C50.342,283.961,51.379,284.997,51.379,286.276z"/>
						<path style="fill:#6981F7;" d="M102.517,286.276c0,1.278-1.037,2.315-2.315,2.315c-1.279,0-2.316-1.037-2.316-2.315        c0-1.279,1.037-2.315,2.316-2.315C101.479,283.961,102.517,284.997,102.517,286.276z"/>
					</g>
					<g>
						<path style="fill:#6981F7;" d="M51.379,211.788c0,1.279-1.037,2.316-2.316,2.316c-1.278,0-2.315-1.037-2.315-2.316        c0-1.278,1.037-2.315,2.315-2.315C50.342,209.473,51.379,210.51,51.379,211.788z"/>
						<path style="fill:#6981F7;" d="M102.517,211.788c0,1.279-1.037,2.316-2.315,2.316c-1.279,0-2.316-1.037-2.316-2.316        c0-1.278,1.037-2.315,2.316-2.315C101.479,209.473,102.517,210.51,102.517,211.788z"/>
					</g>
				</g>
			</g>
			<g>
				<g>
					<path style="fill:#6981F7;" d="M92.149,212.886H57.114c-0.474,0-0.857-0.384-0.857-0.857l0,0c0-0.474,0.384-0.857,0.857-0.857       h35.035c0.474,0,0.857,0.384,0.857,0.857l0,0C93.007,212.502,92.623,212.886,92.149,212.886z"/>
				</g>
				<g>
					<path style="fill:#6981F7;" d="M92.149,286.894H57.114c-0.474,0-0.857-0.384-0.857-0.857l0,0c0-0.473,0.384-0.856,0.857-0.856       h35.035c0.474,0,0.857,0.384,0.857,0.856l0,0C93.007,286.51,92.623,286.894,92.149,286.894z"/>
				</g>
			</g>
		</g>
	</g>
</g>
</svg>